<svg xmlns="http://www.w3.org/2000/svg" xmlns:xlink="http://www.w3.org/1999/xlink" width="386" zoomAndPan="magnify" viewBox="0 0 289.5 148.499996" height="198" preserveAspectRatio="xMidYMid meet" version="1.0"><defs><g/><clipPath id="67f5a6bfe1"><path d="M 0.238281 34.789062 L 117.589844 34.789062 L 117.589844 127.351562 L 0.238281 127.351562 Z M 0.238281 34.789062 " clip-rule="nonzero"/></clipPath></defs><g clip-path="url(#67f5a6bfe1)"><path fill="#efa216" d="M 86.726562 51.554688 C 88.871094 51.554688 88.871094 48.226562 86.726562 48.226562 C 84.585938 48.226562 84.582031 51.554688 86.726562 51.554688 Z M 32.746094 51.039062 C 34.890625 51.039062 34.894531 47.707031 32.746094 47.707031 C 30.605469 47.707031 30.601562 51.039062 32.746094 51.039062 Z M 24.351562 63.695312 C 26.496094 63.695312 26.5 60.363281 24.351562 60.363281 C 22.210938 60.363281 22.207031 63.695312 24.351562 63.695312 Z M 48.628906 56.925781 C 50.769531 56.925781 50.78125 53.597656 48.628906 53.597656 C 46.488281 53.597656 46.484375 56.925781 48.628906 56.925781 Z M 54.3125 43.160156 C 56.457031 43.160156 56.457031 39.832031 54.3125 39.832031 C 52.171875 39.832031 52.167969 43.160156 54.3125 43.160156 Z M 82.980469 64.339844 C 85.125 64.339844 85.128906 61.011719 82.980469 61.011719 C 80.839844 61.011719 80.835938 64.339844 82.980469 64.339844 Z M 72.265625 46.777344 C 74.40625 46.777344 74.410156 43.445312 72.265625 43.445312 C 70.121094 43.445312 70.117188 46.777344 72.265625 46.777344 Z M 59.054688 38.117188 C 32.339844 38.117188 10.605469 51.503906 10.605469 67.960938 L 10.605469 69.394531 C 10.605469 71.054688 11.953125 72.40625 13.617188 72.40625 L 104.5 72.40625 C 106.15625 72.40625 107.507812 71.054688 107.507812 69.394531 L 107.507812 67.960938 C 107.507812 51.503906 85.773438 38.117188 59.058594 38.117188 Z M 104.496094 75.730469 L 13.613281 75.730469 C 10.121094 75.730469 7.277344 72.886719 7.277344 69.394531 L 7.277344 67.960938 C 7.277344 58.953125 12.769531 50.539062 22.734375 44.273438 C 32.460938 38.15625 45.359375 34.789062 59.054688 34.789062 C 72.75 34.789062 85.648438 38.15625 95.375 44.273438 C 105.34375 50.539062 110.832031 58.953125 110.832031 67.960938 L 110.832031 69.394531 C 110.832031 72.886719 107.988281 75.730469 104.496094 75.730469 Z M 113.222656 81.46875 C 113.441406 81.300781 113.367188 81.367188 113.121094 81.527344 C 112.773438 81.757812 112.417969 81.976562 112.054688 82.179688 C 110.964844 82.773438 109.777344 83.214844 108.546875 83.414062 C 106.714844 83.714844 104.855469 83.441406 103.1875 82.628906 C 101.300781 81.714844 99.832031 80.199219 97.882812 79.367188 C 93.828125 77.628906 88.917969 78.476562 85.613281 81.417969 C 85.574219 81.445312 85.519531 81.484375 85.449219 81.527344 C 85.101562 81.757812 84.75 81.976562 84.382812 82.179688 C 83.292969 82.773438 82.101562 83.214844 80.875 83.414062 C 79.046875 83.714844 77.183594 83.441406 75.515625 82.628906 C 73.628906 81.714844 72.15625 80.199219 70.210938 79.367188 C 66.15625 77.628906 61.246094 78.476562 57.941406 81.417969 C 57.902344 81.445312 57.851562 81.484375 57.777344 81.527344 C 57.429688 81.757812 57.074219 81.976562 56.707031 82.179688 C 55.617188 82.773438 54.429688 83.214844 53.203125 83.414062 C 51.375 83.714844 49.507812 83.441406 47.839844 82.628906 C 45.953125 81.714844 44.484375 80.199219 42.539062 79.367188 C 38.480469 77.628906 33.570312 78.476562 30.269531 81.417969 C 30.230469 81.445312 30.175781 81.484375 30.105469 81.527344 C 29.753906 81.757812 29.402344 81.976562 29.035156 82.179688 C 27.945312 82.773438 26.753906 83.214844 25.527344 83.414062 C 23.699219 83.714844 21.835938 83.441406 20.167969 82.628906 C 18.285156 81.714844 16.8125 80.199219 14.867188 79.367188 C 10.78125 77.621094 5.832031 78.484375 2.53125 81.46875 C 0.9375 82.914062 3.300781 85.257812 4.886719 83.824219 C 5.894531 82.914062 7.59375 82.144531 9.0625 81.882812 C 13.347656 81.109375 15.835938 84.429688 19.421875 85.929688 C 23.769531 87.746094 28.917969 86.722656 32.558594 83.824219 C 33.570312 82.914062 35.265625 82.144531 36.734375 81.882812 C 41.023438 81.109375 43.507812 84.429688 47.097656 85.929688 C 51.445312 87.746094 56.589844 86.722656 60.230469 83.824219 C 61.242188 82.914062 62.9375 82.144531 64.410156 81.882812 C 68.695312 81.109375 71.179688 84.429688 74.769531 85.929688 C 79.117188 87.746094 84.261719 86.722656 87.90625 83.824219 C 88.917969 82.914062 90.609375 82.144531 92.082031 81.882812 C 96.371094 81.109375 98.855469 84.429688 102.441406 85.929688 C 106.785156 87.746094 111.9375 86.722656 115.578125 83.824219 C 117.253906 82.488281 114.882812 80.148438 113.222656 81.46875 Z M 5.914062 92.886719 C 4.617188 92.886719 3.5625 93.945312 3.5625 95.242188 L 3.5625 97.40625 C 3.5625 98.703125 4.617188 99.757812 5.914062 99.757812 L 112.195312 99.757812 C 113.492188 99.757812 114.546875 98.703125 114.546875 97.40625 L 114.546875 95.242188 C 114.546875 93.945312 113.492188 92.886719 112.195312 92.886719 Z M 112.195312 103.085938 L 5.914062 103.085938 C 2.785156 103.085938 0.238281 100.542969 0.238281 97.40625 L 0.238281 95.242188 C 0.238281 92.109375 2.785156 89.5625 5.914062 89.5625 L 112.195312 89.5625 C 115.324219 89.5625 117.871094 92.109375 117.871094 95.242188 L 117.871094 97.40625 C 117.871094 100.542969 115.324219 103.085938 112.195312 103.085938 Z M 13.613281 109.691406 C 11.953125 109.691406 10.601562 111.039062 10.601562 112.699219 L 10.601562 114.78125 C 10.601562 119.878906 14.75 124.027344 19.847656 124.027344 L 98.261719 124.027344 C 103.359375 124.027344 107.503906 119.878906 107.503906 114.78125 L 107.503906 112.699219 C 107.503906 111.039062 106.152344 109.691406 104.496094 109.691406 Z M 98.261719 127.351562 L 19.847656 127.351562 C 12.917969 127.351562 7.277344 121.710938 7.277344 114.78125 L 7.277344 112.699219 C 7.277344 109.207031 10.121094 106.363281 13.617188 106.363281 L 104.5 106.363281 C 107.988281 106.363281 110.832031 109.207031 110.832031 112.699219 L 110.832031 114.78125 C 110.832031 121.710938 105.195312 127.351562 98.261719 127.351562 " fill-opacity="1" fill-rule="nonzero"/></g><g fill="#b81821" fill-opacity="1"><g transform="translate(121.683759, 95.580485)"><g><path d="M 10.828125 0 C 16.242188 0 19.570312 -2.730469 19.570312 -7.496094 L 19.570312 -54.738281 C 19.570312 -56.726562 18.832031 -58.625 17.488281 -59.917969 C 15.871094 -61.445312 13.742188 -62.1875 11.011719 -62.1875 L 3.378906 -62.1875 C 2.5 -62.1875 2.3125 -61.953125 2.3125 -61.074219 L 2.3125 -1.109375 C 2.3125 -0.183594 2.542969 0 3.609375 0 Z M 8.28125 -57.050781 L 10.917969 -57.050781 C 12.632812 -57.050781 13.601562 -56.03125 13.601562 -54.691406 L 13.601562 -7.496094 C 13.601562 -6.199219 12.679688 -5.136719 11.152344 -5.136719 L 8.28125 -5.136719 Z M 8.28125 -57.050781 "/></g></g></g><g fill="#b81821" fill-opacity="1"><g transform="translate(143.383662, 95.580485)"><g><path d="M 3.378906 -62.1875 C 2.5 -62.1875 2.3125 -61.953125 2.3125 -61.074219 L 2.3125 -1.109375 C 2.3125 -0.183594 2.542969 0 3.65625 0 L 15.082031 0 C 15.777344 0 16.148438 -0.417969 16.148438 -1.203125 L 16.148438 -2.082031 C 16.148438 -4.117188 15.128906 -5.136719 13.417969 -5.136719 L 8.28125 -5.136719 L 8.28125 -28.222656 L 12.539062 -28.222656 C 14.25 -28.222656 15.269531 -29.289062 15.269531 -31.277344 L 15.269531 -32.203125 C 15.269531 -32.988281 14.898438 -33.359375 14.203125 -33.359375 L 8.28125 -33.359375 L 8.28125 -57.050781 L 13.417969 -57.050781 C 15.128906 -57.050781 16.148438 -58.113281 16.148438 -60.105469 L 16.148438 -60.984375 C 16.148438 -61.769531 15.777344 -62.1875 15.082031 -62.1875 Z M 3.378906 -62.1875 "/></g></g></g><g fill="#b81821" fill-opacity="1"><g transform="translate(161.19702, 95.580485)"><g><path d="M 18.96875 -61.398438 C 18.96875 -61.953125 18.738281 -62.1875 18 -62.1875 L 15.453125 -62.1875 C 14.160156 -62.1875 13.046875 -61.261719 12.910156 -59.964844 L 9.761719 -8.835938 L 6.617188 -59.964844 C 6.476562 -61.261719 5.320312 -62.1875 4.027344 -62.1875 L 1.527344 -62.1875 C 0.785156 -62.1875 0.507812 -62.046875 0.507812 -61.539062 C 0.507812 -61.351562 0.507812 -61.214844 0.554688 -61.121094 L 5.644531 -1.296875 C 5.785156 -0.371094 6.109375 0 7.03125 0 L 12.445312 0 C 13.324219 0 13.789062 -0.417969 13.835938 -1.296875 L 18.96875 -61.121094 Z M 18.96875 -61.398438 "/></g></g></g><g fill="#b81821" fill-opacity="1"><g transform="translate(180.768581, 95.580485)"><g><path d="M 3.285156 -62.1875 C 2.40625 -62.1875 2.222656 -61.953125 2.222656 -61.074219 L 2.222656 -1.203125 C 2.222656 -0.277344 2.40625 0 3.285156 0 L 5.828125 0 C 7.125 0 8.191406 -0.972656 8.191406 -2.265625 L 8.191406 -28.222656 L 12.445312 -28.222656 C 14.25 -28.222656 15.175781 -29.242188 15.175781 -31.277344 L 15.175781 -32.15625 C 15.175781 -32.945312 14.804688 -33.359375 14.113281 -33.359375 L 8.191406 -33.359375 L 8.191406 -57.050781 L 13.324219 -57.050781 C 15.128906 -57.050781 16.054688 -58.066406 16.054688 -60.105469 L 16.054688 -60.984375 C 16.054688 -61.769531 15.683594 -62.1875 14.992188 -62.1875 Z M 3.285156 -62.1875 "/></g></g></g><g fill="#b81821" fill-opacity="1"><g transform="translate(197.378961, 95.580485)"><g><path d="M 2.222656 -6.617188 C 2.222656 -4.765625 2.914062 -2.867188 4.347656 -1.527344 C 5.921875 0.046875 8.097656 0.832031 10.875 0.832031 C 13.601562 0.832031 15.777344 0.046875 17.445312 -1.574219 C 18.832031 -2.960938 19.527344 -4.625 19.527344 -6.617188 L 19.527344 -55.664062 C 19.527344 -57.558594 18.785156 -59.503906 17.351562 -60.796875 C 15.871094 -62.234375 13.601562 -63.066406 10.875 -63.066406 C 8.144531 -63.066406 5.921875 -62.234375 4.441406 -60.796875 C 3.007812 -59.503906 2.222656 -57.652344 2.222656 -55.664062 Z M 8.191406 -55.476562 C 8.191406 -56.820312 9.070312 -57.835938 10.875 -57.835938 C 12.585938 -57.835938 13.558594 -56.820312 13.558594 -55.476562 L 13.558594 -6.753906 C 13.558594 -5.414062 12.632812 -4.394531 10.917969 -4.394531 C 9.113281 -4.394531 8.191406 -5.414062 8.191406 -6.753906 Z M 8.191406 -55.476562 "/></g></g></g><g fill="#b81821" fill-opacity="1"><g transform="translate(219.078864, 95.580485)"><g><path d="M 2.222656 -6.617188 C 2.222656 -4.765625 2.914062 -2.867188 4.347656 -1.527344 C 5.921875 0.046875 8.097656 0.832031 10.875 0.832031 C 13.601562 0.832031 15.777344 0.046875 17.445312 -1.574219 C 18.832031 -2.960938 19.527344 -4.625 19.527344 -6.617188 L 19.527344 -55.664062 C 19.527344 -57.558594 18.785156 -59.503906 17.351562 -60.796875 C 15.871094 -62.234375 13.601562 -63.066406 10.875 -63.066406 C 8.144531 -63.066406 5.921875 -62.234375 4.441406 -60.796875 C 3.007812 -59.503906 2.222656 -57.652344 2.222656 -55.664062 Z M 8.191406 -55.476562 C 8.191406 -56.820312 9.070312 -57.835938 10.875 -57.835938 C 12.585938 -57.835938 13.558594 -56.820312 13.558594 -55.476562 L 13.558594 -6.753906 C 13.558594 -5.414062 12.632812 -4.394531 10.917969 -4.394531 C 9.113281 -4.394531 8.191406 -5.414062 8.191406 -6.753906 Z M 8.191406 -55.476562 "/></g></g></g><g fill="#b81821" fill-opacity="1"><g transform="translate(240.778766, 95.580485)"><g><path d="M 10.828125 0 C 16.242188 0 19.570312 -2.730469 19.570312 -7.496094 L 19.570312 -54.738281 C 19.570312 -56.726562 18.832031 -58.625 17.488281 -59.917969 C 15.871094 -61.445312 13.742188 -62.1875 11.011719 -62.1875 L 3.378906 -62.1875 C 2.5 -62.1875 2.3125 -61.953125 2.3125 -61.074219 L 2.3125 -1.109375 C 2.3125 -0.183594 2.542969 0 3.609375 0 Z M 8.28125 -57.050781 L 10.917969 -57.050781 C 12.632812 -57.050781 13.601562 -56.03125 13.601562 -54.691406 L 13.601562 -7.496094 C 13.601562 -6.199219 12.679688 -5.136719 11.152344 -5.136719 L 8.28125 -5.136719 Z M 8.28125 -57.050781 "/></g></g></g><g fill="#b81821" fill-opacity="1"><g transform="translate(123.518448, 127.190846)"><g><path d="M 4.753906 -23.027344 C 3.636719 -23.027344 2.675781 -22.6875 2.015625 -22.109375 C 1.359375 -21.53125 1 -20.730469 1 -19.832031 L 1 -2.816406 C 1 -1.917969 1.359375 -1.097656 1.996094 -0.539062 C 2.675781 0.078125 3.574219 0.378906 4.695312 0.378906 C 5.8125 0.378906 6.789062 0.0390625 7.449219 -0.539062 C 8.089844 -1.097656 8.449219 -1.917969 8.449219 -2.816406 L 8.449219 -9.527344 C 8.449219 -9.785156 8.289062 -9.90625 7.988281 -9.90625 L 6.832031 -9.90625 C 6.570312 -9.90625 6.371094 -9.847656 6.210938 -9.746094 C 5.992188 -9.605469 5.871094 -9.40625 5.871094 -9.148438 L 5.871094 -2.894531 C 5.871094 -2.355469 5.53125 -1.898438 4.734375 -1.898438 C 3.953125 -1.898438 3.574219 -2.316406 3.574219 -2.894531 L 3.574219 -19.730469 C 3.574219 -20.3125 3.972656 -20.75 4.714844 -20.75 C 5.453125 -20.75 5.890625 -20.3125 5.890625 -19.730469 L 5.890625 -13.28125 C 5.890625 -12.800781 6.371094 -12.523438 6.851562 -12.523438 L 8.007812 -12.523438 C 8.308594 -12.523438 8.449219 -12.664062 8.449219 -12.921875 L 8.449219 -19.832031 C 8.449219 -20.710938 8.089844 -21.507812 7.449219 -22.089844 C 6.75 -22.707031 5.851562 -23.027344 4.753906 -23.027344 Z M 4.753906 -23.027344 "/></g></g></g><g fill="#b81821" fill-opacity="1"><g transform="translate(135.41882, 127.190846)"><g><path d="M 1 -2.855469 C 1 -2.058594 1.296875 -1.238281 1.917969 -0.660156 C 2.597656 0.0195312 3.535156 0.359375 4.734375 0.359375 C 5.910156 0.359375 6.851562 0.0195312 7.550781 -0.679688 C 8.148438 -1.277344 8.449219 -1.996094 8.449219 -2.855469 L 8.449219 -19.8125 C 8.449219 -20.671875 8.148438 -21.46875 7.53125 -22.050781 C 6.832031 -22.707031 5.890625 -23.027344 4.714844 -23.027344 C 3.554688 -23.027344 2.636719 -22.707031 1.957031 -22.050781 C 1.316406 -21.46875 1 -20.632812 1 -19.8125 Z M 3.574219 -19.730469 C 3.574219 -20.3125 3.972656 -20.75 4.714844 -20.75 C 5.492188 -20.75 5.871094 -20.3125 5.871094 -19.730469 L 5.871094 -2.914062 C 5.871094 -2.335938 5.492188 -1.898438 4.753906 -1.898438 C 3.972656 -1.898438 3.574219 -2.335938 3.574219 -2.914062 Z M 3.574219 -19.730469 "/></g></g></g><g fill="#b81821" fill-opacity="1"><g transform="translate(147.319192, 127.190846)"><g><path d="M 4.972656 -0.558594 C 5.011719 -0.179688 5.210938 0 5.59375 0 L 7.109375 0 C 7.507812 0 7.710938 -0.179688 7.730469 -0.558594 L 9.464844 -16.457031 L 9.585938 -13.800781 L 9.1875 -1.019531 C 9.1875 -0.398438 9.644531 0 10.226562 0 L 11.285156 0 C 11.582031 0 11.742188 -0.160156 11.742188 -0.480469 L 11.742188 -22.167969 C 11.742188 -22.546875 11.683594 -22.628906 11.304688 -22.628906 L 10.125 -22.628906 C 9.488281 -22.628906 9.027344 -22.589844 8.769531 -22.507812 C 8.328125 -22.367188 8.089844 -22.089844 8.027344 -21.667969 L 6.351562 -4.511719 L 4.671875 -21.667969 C 4.613281 -22.230469 4.132812 -22.628906 3.574219 -22.628906 L 1.417969 -22.628906 C 1.019531 -22.628906 0.957031 -22.546875 0.957031 -22.167969 L 0.957031 -0.480469 C 0.957031 -0.140625 1.058594 0 1.4375 0 L 2.496094 0 C 3.074219 0 3.535156 -0.398438 3.535156 -1.019531 L 3.136719 -13.800781 L 3.234375 -16.457031 Z M 4.972656 -0.558594 "/></g></g></g><g fill="#b81821" fill-opacity="1"><g transform="translate(162.574638, 127.190846)"><g><path d="M 3.535156 -22.167969 C 3.535156 -22.546875 3.476562 -22.628906 3.074219 -22.628906 L 1.976562 -22.628906 C 1.417969 -22.628906 0.957031 -22.1875 0.957031 -21.628906 L 0.957031 -0.578125 C 0.957031 -0.199219 1.136719 0 1.519531 0 L 2.957031 0 C 3.335938 0 3.535156 -0.199219 3.535156 -0.578125 Z M 3.535156 -22.167969 "/></g></g></g><g fill="#b81821" fill-opacity="1"><g transform="translate(169.522296, 127.190846)"><g><path d="M 4.714844 0 C 5.832031 0 6.730469 -0.300781 7.390625 -0.878906 C 8.070312 -1.476562 8.40625 -2.277344 8.40625 -3.253906 L 8.40625 -19.394531 C 8.40625 -20.171875 8.109375 -20.949219 7.550781 -21.570312 C 6.929688 -22.207031 5.972656 -22.628906 4.714844 -22.628906 L 1.417969 -22.628906 C 1.039062 -22.628906 0.957031 -22.527344 0.957031 -22.148438 L 0.957031 -0.480469 C 0.957031 -0.101562 1.039062 0 1.417969 0 Z M 3.535156 -20.410156 L 4.671875 -20.410156 C 5.414062 -20.410156 5.832031 -19.972656 5.832031 -19.394531 L 5.832031 -3.234375 C 5.832031 -2.675781 5.433594 -2.21875 4.773438 -2.21875 L 3.535156 -2.21875 Z M 3.535156 -20.410156 "/></g></g></g><g fill="#b81821" fill-opacity="1"><g transform="translate(181.322823, 127.190846)"><g><path d="M 5.773438 -22.070312 C 5.730469 -22.449219 5.53125 -22.628906 5.152344 -22.628906 L 2.816406 -22.628906 C 2.417969 -22.628906 2.277344 -22.46875 2.21875 -22.070312 L 0.238281 -0.460938 L 0.238281 -0.359375 C 0.238281 -0.101562 0.339844 0 0.660156 0 L 1.757812 0 C 2.316406 0 2.796875 -0.398438 2.855469 -0.957031 L 3.035156 -3.996094 L 4.914062 -3.996094 L 5.113281 -0.957031 C 5.132812 -0.398438 5.652344 0 6.210938 0 L 7.308594 0 C 7.609375 0 7.730469 -0.101562 7.730469 -0.28125 C 7.730469 -0.359375 7.730469 -0.417969 7.710938 -0.460938 Z M 3.996094 -19.03125 L 4.792969 -5.972656 L 3.15625 -5.972656 L 3.972656 -18.953125 Z M 3.996094 -19.03125 "/></g></g></g><g fill="#b81821" fill-opacity="1"><g transform="translate(191.785312, 127.190846)"><g/></g></g><g fill="#b81821" fill-opacity="1"><g transform="translate(198.812852, 127.190846)"><g><path d="M 8.40625 -8.328125 C 8.40625 -9.308594 7.988281 -9.984375 7.148438 -10.367188 C 7.988281 -10.863281 8.40625 -11.722656 8.40625 -12.941406 L 8.40625 -19.433594 C 8.40625 -20.292969 8.128906 -21.089844 7.507812 -21.667969 C 6.832031 -22.328125 5.890625 -22.648438 4.714844 -22.648438 L 1.417969 -22.648438 C 1.039062 -22.648438 0.957031 -22.546875 0.957031 -22.167969 L 0.957031 -0.480469 C 0.957031 -0.101562 1.039062 0 1.417969 0 L 2.515625 0 C 3.074219 0 3.535156 -0.417969 3.535156 -0.980469 L 3.535156 -9.328125 L 4.671875 -9.328125 C 5.453125 -9.328125 5.832031 -8.90625 5.832031 -8.328125 L 5.832031 -0.980469 C 5.832031 -0.417969 6.269531 0 6.832031 0 L 7.929688 0 C 8.308594 0 8.40625 -0.101562 8.40625 -0.480469 Z M 4.671875 -20.429688 C 5.414062 -20.429688 5.832031 -19.992188 5.832031 -19.414062 L 5.832031 -12.980469 C 5.832031 -12.601562 5.75 -12.28125 5.613281 -12.023438 C 5.433594 -11.703125 5.152344 -11.542969 4.773438 -11.542969 L 3.535156 -11.542969 L 3.535156 -20.429688 Z M 4.671875 -20.429688 "/></g></g></g><g fill="#b81821" fill-opacity="1"><g transform="translate(210.613377, 127.190846)"><g><path d="M 3.234375 -24.246094 C 3.234375 -24.007812 3.375 -23.886719 3.636719 -23.886719 L 3.972656 -23.886719 C 4.554688 -23.886719 4.792969 -24.1875 5.054688 -24.886719 L 6.171875 -28.199219 C 6.230469 -28.378906 6.269531 -28.519531 6.269531 -28.640625 C 6.269531 -29.039062 5.972656 -29.238281 5.390625 -29.238281 L 4.714844 -29.238281 C 4.394531 -29.238281 4.132812 -29.039062 4.074219 -28.78125 L 3.253906 -24.367188 Z M 5.773438 -22.070312 C 5.730469 -22.449219 5.53125 -22.628906 5.152344 -22.628906 L 2.816406 -22.628906 C 2.417969 -22.628906 2.277344 -22.46875 2.21875 -22.070312 L 0.238281 -0.460938 L 0.238281 -0.359375 C 0.238281 -0.101562 0.339844 0 0.660156 0 L 1.757812 0 C 2.316406 0 2.796875 -0.398438 2.855469 -0.957031 L 3.035156 -3.996094 L 4.914062 -3.996094 L 5.113281 -0.957031 C 5.132812 -0.398438 5.652344 0 6.210938 0 L 7.308594 0 C 7.609375 0 7.730469 -0.101562 7.730469 -0.28125 C 7.730469 -0.359375 7.730469 -0.417969 7.710938 -0.460938 Z M 3.996094 -19.03125 L 4.792969 -5.972656 L 3.15625 -5.972656 L 3.972656 -18.953125 Z M 3.996094 -19.03125 "/></g></g></g><g fill="#b81821" fill-opacity="1"><g transform="translate(221.075871, 127.190846)"><g><path d="M 2.515625 0 C 3.074219 0 3.535156 -0.417969 3.535156 -0.980469 L 3.535156 -7.808594 L 4.632812 -7.808594 C 5.75 -7.808594 6.730469 -8.148438 7.390625 -8.726562 C 8.046875 -9.285156 8.40625 -10.105469 8.40625 -11.003906 L 8.40625 -19.414062 C 8.40625 -20.3125 8.046875 -21.128906 7.410156 -21.710938 C 6.710938 -22.328125 5.8125 -22.628906 4.714844 -22.628906 L 1.417969 -22.628906 C 1.039062 -22.628906 0.957031 -22.527344 0.957031 -22.148438 L 0.957031 -0.480469 C 0.957031 -0.101562 1.039062 0 1.417969 0 Z M 4.671875 -20.410156 C 5.414062 -20.410156 5.832031 -19.972656 5.832031 -19.394531 L 5.832031 -11.023438 C 5.832031 -10.484375 5.433594 -10.027344 4.773438 -10.027344 L 3.535156 -10.027344 L 3.535156 -20.410156 Z M 4.671875 -20.410156 "/></g></g></g><g fill="#b81821" fill-opacity="1"><g transform="translate(232.3971, 127.190846)"><g><path d="M 3.535156 -22.167969 C 3.535156 -22.546875 3.476562 -22.628906 3.074219 -22.628906 L 1.976562 -22.628906 C 1.417969 -22.628906 0.957031 -22.1875 0.957031 -21.628906 L 0.957031 -0.578125 C 0.957031 -0.199219 1.136719 0 1.519531 0 L 2.957031 0 C 3.335938 0 3.535156 -0.199219 3.535156 -0.578125 Z M 3.535156 -22.167969 "/></g></g></g><g fill="#b81821" fill-opacity="1"><g transform="translate(239.344761, 127.190846)"><g><path d="M 4.714844 0 C 5.832031 0 6.730469 -0.300781 7.390625 -0.878906 C 8.070312 -1.476562 8.40625 -2.277344 8.40625 -3.253906 L 8.40625 -19.394531 C 8.40625 -20.171875 8.109375 -20.949219 7.550781 -21.570312 C 6.929688 -22.207031 5.972656 -22.628906 4.714844 -22.628906 L 1.417969 -22.628906 C 1.039062 -22.628906 0.957031 -22.527344 0.957031 -22.148438 L 0.957031 -0.480469 C 0.957031 -0.101562 1.039062 0 1.417969 0 Z M 3.535156 -20.410156 L 4.671875 -20.410156 C 5.414062 -20.410156 5.832031 -19.972656 5.832031 -19.394531 L 5.832031 -3.234375 C 5.832031 -2.675781 5.433594 -2.21875 4.773438 -2.21875 L 3.535156 -2.21875 Z M 3.535156 -20.410156 "/></g></g></g><g fill="#b81821" fill-opacity="1"><g transform="translate(251.145291, 127.190846)"><g><path d="M 5.773438 -22.070312 C 5.730469 -22.449219 5.53125 -22.628906 5.152344 -22.628906 L 2.816406 -22.628906 C 2.417969 -22.628906 2.277344 -22.46875 2.21875 -22.070312 L 0.238281 -0.460938 L 0.238281 -0.359375 C 0.238281 -0.101562 0.339844 0 0.660156 0 L 1.757812 0 C 2.316406 0 2.796875 -0.398438 2.855469 -0.957031 L 3.035156 -3.996094 L 4.914062 -3.996094 L 5.113281 -0.957031 C 5.132812 -0.398438 5.652344 0 6.210938 0 L 7.308594 0 C 7.609375 0 7.730469 -0.101562 7.730469 -0.28125 C 7.730469 -0.359375 7.730469 -0.417969 7.710938 -0.460938 Z M 3.996094 -19.03125 L 4.792969 -5.972656 L 3.15625 -5.972656 L 3.972656 -18.953125 Z M 3.996094 -19.03125 "/></g></g></g></svg>